<mxfile host="app.diagrams.net" modified="2022-03-08T12:21:28.475Z" agent="5.0 (Macintosh; Intel Mac OS X 10_15_7) AppleWebKit/537.36 (KHTML, like Gecko) Chrome/98.0.4758.109 Safari/537.36" etag="R_5H4BJkp04AwiMI04Q9" version="16.6.8" type="github">
  <diagram id="_0lOk9yRYG6lajLzOWdz" name="Page-1">
    <mxGraphModel dx="1426" dy="1813" grid="1" gridSize="10" guides="1" tooltips="1" connect="1" arrows="1" fold="1" page="1" pageScale="1" pageWidth="850" pageHeight="1100" math="0" shadow="0">
      <root>
        <mxCell id="0" />
        <mxCell id="1" parent="0" />
        <mxCell id="qtepxR4HCAsDvNaJo-Ub-1" value="" style="rounded=0;whiteSpace=wrap;html=1;fillColor=#f5f5f5;fontColor=#333333;strokeColor=#666666;" vertex="1" parent="1">
          <mxGeometry x="130" y="-570" width="120" height="60" as="geometry" />
        </mxCell>
        <mxCell id="qtepxR4HCAsDvNaJo-Ub-2" value="" style="rounded=1;whiteSpace=wrap;html=1;" vertex="1" parent="1">
          <mxGeometry x="60" y="-660" width="120" height="60" as="geometry" />
        </mxCell>
        <mxCell id="qtepxR4HCAsDvNaJo-Ub-3" value="" style="ellipse;whiteSpace=wrap;html=1;fillColor=#ffe6cc;strokeColor=#d79b00;" vertex="1" parent="1">
          <mxGeometry x="230" y="-450" width="120" height="80" as="geometry" />
        </mxCell>
      </root>
    </mxGraphModel>
  </diagram>
</mxfile>
